<mxfile host="app.diagrams.net" agent="Mozilla/5.0 (Windows NT 10.0; Win64; x64) AppleWebKit/537.36 (KHTML, like Gecko) Chrome/134.0.0.0 Safari/537.36" version="26.1.3">
  <diagram name="Page-1" id="dIoY7uUjEfw6pqAA2hJH">
    <mxGraphModel dx="1500" dy="803" grid="1" gridSize="10" guides="1" tooltips="1" connect="1" arrows="1" fold="1" page="1" pageScale="1" pageWidth="850" pageHeight="1100" math="0" shadow="0">
      <root>
        <mxCell id="0" />
        <mxCell id="1" parent="0" />
        <mxCell id="TujkYmGn0Lcb8O3dk1mC-3" value="" style="edgeStyle=orthogonalEdgeStyle;rounded=0;orthogonalLoop=1;jettySize=auto;html=1;" edge="1" parent="1" source="TujkYmGn0Lcb8O3dk1mC-1" target="TujkYmGn0Lcb8O3dk1mC-2">
          <mxGeometry relative="1" as="geometry" />
        </mxCell>
        <mxCell id="TujkYmGn0Lcb8O3dk1mC-4" value="" style="edgeStyle=orthogonalEdgeStyle;rounded=0;orthogonalLoop=1;jettySize=auto;html=1;" edge="1" parent="1" source="TujkYmGn0Lcb8O3dk1mC-1" target="TujkYmGn0Lcb8O3dk1mC-2">
          <mxGeometry relative="1" as="geometry" />
        </mxCell>
        <mxCell id="TujkYmGn0Lcb8O3dk1mC-5" value="" style="edgeStyle=orthogonalEdgeStyle;rounded=0;orthogonalLoop=1;jettySize=auto;html=1;" edge="1" parent="1" source="TujkYmGn0Lcb8O3dk1mC-1" target="TujkYmGn0Lcb8O3dk1mC-2">
          <mxGeometry relative="1" as="geometry" />
        </mxCell>
        <mxCell id="TujkYmGn0Lcb8O3dk1mC-6" value="" style="edgeStyle=orthogonalEdgeStyle;rounded=0;orthogonalLoop=1;jettySize=auto;html=1;" edge="1" parent="1" source="TujkYmGn0Lcb8O3dk1mC-1" target="TujkYmGn0Lcb8O3dk1mC-2">
          <mxGeometry relative="1" as="geometry" />
        </mxCell>
        <mxCell id="TujkYmGn0Lcb8O3dk1mC-7" value="" style="edgeStyle=orthogonalEdgeStyle;rounded=0;orthogonalLoop=1;jettySize=auto;html=1;" edge="1" parent="1" source="TujkYmGn0Lcb8O3dk1mC-1" target="TujkYmGn0Lcb8O3dk1mC-2">
          <mxGeometry relative="1" as="geometry" />
        </mxCell>
        <mxCell id="TujkYmGn0Lcb8O3dk1mC-12" value="" style="edgeStyle=orthogonalEdgeStyle;rounded=0;orthogonalLoop=1;jettySize=auto;html=1;" edge="1" parent="1" source="TujkYmGn0Lcb8O3dk1mC-1" target="TujkYmGn0Lcb8O3dk1mC-2">
          <mxGeometry relative="1" as="geometry" />
        </mxCell>
        <mxCell id="TujkYmGn0Lcb8O3dk1mC-14" value="" style="edgeStyle=orthogonalEdgeStyle;rounded=0;orthogonalLoop=1;jettySize=auto;html=1;" edge="1" parent="1" source="TujkYmGn0Lcb8O3dk1mC-1" target="TujkYmGn0Lcb8O3dk1mC-13">
          <mxGeometry relative="1" as="geometry" />
        </mxCell>
        <mxCell id="TujkYmGn0Lcb8O3dk1mC-1" value="Pelamar" style="rounded=1;whiteSpace=wrap;html=1;" vertex="1" parent="1">
          <mxGeometry x="40" y="330" width="120" height="60" as="geometry" />
        </mxCell>
        <mxCell id="TujkYmGn0Lcb8O3dk1mC-9" value="" style="edgeStyle=orthogonalEdgeStyle;rounded=0;orthogonalLoop=1;jettySize=auto;html=1;" edge="1" parent="1" source="TujkYmGn0Lcb8O3dk1mC-2" target="TujkYmGn0Lcb8O3dk1mC-8">
          <mxGeometry relative="1" as="geometry" />
        </mxCell>
        <mxCell id="TujkYmGn0Lcb8O3dk1mC-2" value="Melihat Lowongan Pekerjaan" style="rounded=1;whiteSpace=wrap;html=1;" vertex="1" parent="1">
          <mxGeometry x="220" y="230" width="120" height="60" as="geometry" />
        </mxCell>
        <mxCell id="TujkYmGn0Lcb8O3dk1mC-11" value="" style="edgeStyle=orthogonalEdgeStyle;rounded=0;orthogonalLoop=1;jettySize=auto;html=1;" edge="1" parent="1" source="TujkYmGn0Lcb8O3dk1mC-8" target="TujkYmGn0Lcb8O3dk1mC-10">
          <mxGeometry relative="1" as="geometry" />
        </mxCell>
        <mxCell id="TujkYmGn0Lcb8O3dk1mC-8" value="Melamar Pekerjaan Yang Sesuai" style="rounded=1;whiteSpace=wrap;html=1;" vertex="1" parent="1">
          <mxGeometry x="420" y="230" width="120" height="60" as="geometry" />
        </mxCell>
        <mxCell id="TujkYmGn0Lcb8O3dk1mC-16" value="" style="edgeStyle=orthogonalEdgeStyle;rounded=0;orthogonalLoop=1;jettySize=auto;html=1;" edge="1" parent="1" source="TujkYmGn0Lcb8O3dk1mC-10" target="TujkYmGn0Lcb8O3dk1mC-15">
          <mxGeometry relative="1" as="geometry" />
        </mxCell>
        <mxCell id="TujkYmGn0Lcb8O3dk1mC-10" value="Mengisi Form Lamaran Pekerjaan" style="rounded=1;whiteSpace=wrap;html=1;" vertex="1" parent="1">
          <mxGeometry x="670" y="230" width="120" height="60" as="geometry" />
        </mxCell>
        <mxCell id="TujkYmGn0Lcb8O3dk1mC-17" style="edgeStyle=orthogonalEdgeStyle;rounded=0;orthogonalLoop=1;jettySize=auto;html=1;exitX=1;exitY=0.5;exitDx=0;exitDy=0;entryX=0;entryY=0.5;entryDx=0;entryDy=0;" edge="1" parent="1" source="TujkYmGn0Lcb8O3dk1mC-13" target="TujkYmGn0Lcb8O3dk1mC-15">
          <mxGeometry relative="1" as="geometry" />
        </mxCell>
        <mxCell id="TujkYmGn0Lcb8O3dk1mC-19" value="" style="edgeStyle=orthogonalEdgeStyle;rounded=0;orthogonalLoop=1;jettySize=auto;html=1;" edge="1" parent="1" source="TujkYmGn0Lcb8O3dk1mC-13" target="TujkYmGn0Lcb8O3dk1mC-18">
          <mxGeometry relative="1" as="geometry" />
        </mxCell>
        <mxCell id="TujkYmGn0Lcb8O3dk1mC-13" value="Menghubungi Perusahaan" style="rounded=1;whiteSpace=wrap;html=1;" vertex="1" parent="1">
          <mxGeometry x="220" y="410" width="120" height="60" as="geometry" />
        </mxCell>
        <mxCell id="TujkYmGn0Lcb8O3dk1mC-15" value="Selesai" style="rounded=1;whiteSpace=wrap;html=1;" vertex="1" parent="1">
          <mxGeometry x="670" y="410" width="120" height="60" as="geometry" />
        </mxCell>
        <mxCell id="TujkYmGn0Lcb8O3dk1mC-18" value="Menghubungi lewat email / tlp" style="rounded=1;whiteSpace=wrap;html=1;" vertex="1" parent="1">
          <mxGeometry x="420" y="410" width="120" height="60" as="geometry" />
        </mxCell>
      </root>
    </mxGraphModel>
  </diagram>
</mxfile>
